<mxfile host="app.diagrams.net" modified="2021-07-09T16:49:51.716Z" agent="5.0 (Macintosh; Intel Mac OS X 10_15_3) AppleWebKit/537.36 (KHTML, like Gecko) Chrome/91.0.4472.114 Safari/537.36" etag="qywqFPZQdavANa2rVBOx" version="14.8.0" type="github">
  <diagram name="Page-1" id="aaaa8250-4180-3840-79b5-4cada1eebb92">
    <mxGraphModel dx="2852" dy="1426" grid="1" gridSize="10" guides="1" tooltips="1" connect="1" arrows="1" fold="1" page="1" pageScale="1" pageWidth="850" pageHeight="1100" background="none" math="0" shadow="0">
      <root>
        <mxCell id="0" />
        <mxCell id="1" parent="0" />
        <mxCell id="d5ac148becb70bc-7" value="" style="verticalLabelPosition=bottom;html=1;verticalAlign=top;strokeWidth=1;dashed=0;shape=mxgraph.aws3d.flatDoubleEdge;fillColor=#000000;aspect=fixed;rounded=1;shadow=0;comic=0;fontFamily=Verdana;fontSize=12;flipV=1;" parent="1" vertex="1">
          <mxGeometry x="1400" y="1490" width="296.67" height="169.16" as="geometry" />
        </mxCell>
        <mxCell id="1a8abee3a6cfdf20-38" value="" style="verticalLabelPosition=bottom;html=1;verticalAlign=top;strokeWidth=1;dashed=0;shape=mxgraph.aws3d.flatDoubleEdge;fillColor=#000000;aspect=fixed;rounded=1;shadow=0;comic=0;fontFamily=Verdana;fontSize=12;flipV=1;" parent="1" vertex="1">
          <mxGeometry x="890" y="1210" width="325.73" height="185.77" as="geometry" />
        </mxCell>
        <mxCell id="1a8abee3a6cfdf20-28" value="" style="verticalLabelPosition=bottom;html=1;verticalAlign=top;strokeWidth=1;dashed=0;shape=mxgraph.aws3d.flatDoubleEdge;fillColor=#000000;aspect=fixed;rounded=1;shadow=0;comic=0;fontFamily=Verdana;fontSize=12;flipV=1;" parent="1" vertex="1">
          <mxGeometry x="369" y="930" width="369.97" height="211" as="geometry" />
        </mxCell>
        <mxCell id="1a8abee3a6cfdf20-3" value="" style="edgeStyle=isometricEdgeStyle;endArrow=none;html=1;labelBackgroundColor=none;strokeWidth=5;fontFamily=Verdana;fontSize=12;entryX=0.016;entryY=0.022;entryDx=0;entryDy=0;entryPerimeter=0;" parent="1" edge="1" target="1a8abee3a6cfdf20-28">
          <mxGeometry width="50" height="100" relative="1" as="geometry">
            <mxPoint x="352" y="1308" as="sourcePoint" />
            <mxPoint x="262" y="1068" as="targetPoint" />
            <Array as="points">
              <mxPoint x="302" y="1208" />
            </Array>
          </mxGeometry>
        </mxCell>
        <mxCell id="1a8abee3a6cfdf20-5" value="" style="edgeStyle=isometricEdgeStyle;endArrow=none;html=1;labelBackgroundColor=none;strokeColor=#000000;strokeWidth=5;fontFamily=Verdana;fontSize=12;startArrow=none;" parent="1" edge="1" source="1a8abee3a6cfdf20-2">
          <mxGeometry width="50" height="100" relative="1" as="geometry">
            <mxPoint x="422" y="1338" as="sourcePoint" />
            <mxPoint x="920" y="1390" as="targetPoint" />
            <Array as="points">
              <mxPoint x="810" y="1450" />
            </Array>
          </mxGeometry>
        </mxCell>
        <mxCell id="1a8abee3a6cfdf20-25" value="" style="verticalLabelPosition=bottom;html=1;verticalAlign=top;strokeWidth=1;dashed=0;shape=mxgraph.aws3d.arrowhead;aspect=fixed;rounded=1;shadow=0;comic=0;fillColor=none;fontFamily=Verdana;fontSize=12;fontColor=#000000;flipV=1;" parent="1" vertex="1">
          <mxGeometry x="341" y="1291" width="39" height="23" as="geometry" />
        </mxCell>
        <mxCell id="1a8abee3a6cfdf20-27" value="" style="verticalLabelPosition=bottom;html=1;verticalAlign=top;strokeWidth=1;dashed=0;shape=mxgraph.aws3d.arrowhead;aspect=fixed;rounded=1;shadow=0;comic=0;fillColor=none;fontFamily=Verdana;fontSize=12;fontColor=#000000;flipV=1;" parent="1" vertex="1">
          <mxGeometry x="401" y="1328" width="39" height="23" as="geometry" />
        </mxCell>
        <mxCell id="1a8abee3a6cfdf20-1" value="" style="verticalLabelPosition=bottom;html=1;verticalAlign=top;strokeWidth=1;dashed=0;shape=mxgraph.aws3d.secureConnection;fillColor=#000000;strokeColor=#ffffff;aspect=fixed;rounded=1;shadow=0;comic=0;fontSize=12" parent="1" vertex="1">
          <mxGeometry x="310" y="1138" width="56.99999999999999" height="34" as="geometry" />
        </mxCell>
        <mxCell id="1a8abee3a6cfdf20-29" value="" style="verticalLabelPosition=bottom;html=1;verticalAlign=top;strokeWidth=1;dashed=0;shape=mxgraph.aws3d.dashedEdgeDouble;fillColor=#000000;aspect=fixed;rounded=1;shadow=0;comic=0;fontFamily=Verdana;fontSize=12;flipV=1;" parent="1" vertex="1">
          <mxGeometry x="540" y="1010" width="53.2" height="30.57" as="geometry" />
        </mxCell>
        <mxCell id="d5ac148becb70bc-8" value="" style="verticalLabelPosition=bottom;html=1;verticalAlign=top;strokeWidth=1;dashed=0;shape=mxgraph.aws3d.dashedArrowlessEdge;aspect=fixed;rounded=1;shadow=0;comic=0;fontFamily=Verdana;fontSize=12" parent="1" vertex="1">
          <mxGeometry x="950" y="672.07" width="1154.59" height="657.93" as="geometry" />
        </mxCell>
        <mxCell id="d5ac148becb70bc-9" value="" style="verticalLabelPosition=bottom;html=1;verticalAlign=top;strokeWidth=1;dashed=0;shape=mxgraph.aws3d.dashedArrowlessEdge;aspect=fixed;rounded=1;shadow=0;comic=0;fontFamily=Verdana;fontSize=12" parent="1" vertex="1">
          <mxGeometry x="610" y="877.25" width="1145.5" height="652.75" as="geometry" />
        </mxCell>
        <mxCell id="d5ac148becb70bc-12" value="" style="verticalLabelPosition=bottom;html=1;verticalAlign=top;strokeWidth=1;dashed=0;shape=mxgraph.aws3d.dashedArrowlessEdge;aspect=fixed;rounded=1;shadow=0;comic=0;fontFamily=Verdana;fontSize=12;flipV=1;" parent="1" vertex="1">
          <mxGeometry x="1750" y="1338.75" width="335.36" height="191.25" as="geometry" />
        </mxCell>
        <mxCell id="d5ac148becb70bc-14" value="" style="edgeStyle=isometricEdgeStyle;endArrow=none;html=1;labelBackgroundColor=none;strokeWidth=5;fontFamily=Verdana;fontSize=12;startArrow=none;exitX=0.175;exitY=1;exitDx=0;exitDy=0;exitPerimeter=0;" parent="1" edge="1" source="d5ac148becb70bc-16">
          <mxGeometry width="50" height="100" relative="1" as="geometry">
            <mxPoint x="462" y="1368" as="sourcePoint" />
            <mxPoint x="1410" y="1660" as="targetPoint" />
            <Array as="points">
              <mxPoint x="1210" y="1770" />
            </Array>
          </mxGeometry>
        </mxCell>
        <mxCell id="d5ac148becb70bc-15" value="" style="verticalLabelPosition=bottom;html=1;verticalAlign=top;strokeWidth=1;dashed=0;shape=mxgraph.aws3d.arrowhead;aspect=fixed;rounded=1;shadow=0;comic=0;fillColor=none;fontFamily=Verdana;fontSize=12;fontColor=#000000;flipV=1;" parent="1" vertex="1">
          <mxGeometry x="443" y="1356" width="39" height="23" as="geometry" />
        </mxCell>
        <mxCell id="hzy0wfzQoTHKPnieWF61-1" value="" style="verticalLabelPosition=bottom;html=1;verticalAlign=top;strokeWidth=1;align=center;outlineConnect=0;dashed=0;outlineConnect=0;shape=mxgraph.aws3d.end_user;strokeColor=none;fillColor=#777777;aspect=fixed;" vertex="1" parent="1">
          <mxGeometry x="290" y="1314" width="81" height="166.07" as="geometry" />
        </mxCell>
        <mxCell id="hzy0wfzQoTHKPnieWF61-2" value="" style="verticalLabelPosition=bottom;html=1;verticalAlign=top;strokeWidth=1;align=center;outlineConnect=0;dashed=0;outlineConnect=0;shape=mxgraph.aws3d.securityTokenService;fillColor=#ECECEC;strokeColor=#5E5E5E;aspect=fixed;" vertex="1" parent="1">
          <mxGeometry x="580" y="907.82" width="119.38" height="127.34" as="geometry" />
        </mxCell>
        <mxCell id="1a8abee3a6cfdf20-2" value="" style="verticalLabelPosition=bottom;html=1;verticalAlign=top;strokeWidth=1;dashed=0;shape=mxgraph.aws3d.secureConnection;fillColor=#000000;strokeColor=#ffffff;aspect=fixed;rounded=1;shadow=0;comic=0;fontSize=12" parent="1" vertex="1">
          <mxGeometry x="840" y="1402" width="56.99999999999999" height="34" as="geometry" />
        </mxCell>
        <mxCell id="hzy0wfzQoTHKPnieWF61-5" value="" style="edgeStyle=isometricEdgeStyle;endArrow=none;html=1;labelBackgroundColor=none;strokeColor=#000000;strokeWidth=5;fontFamily=Verdana;fontSize=12" edge="1" parent="1" target="1a8abee3a6cfdf20-2">
          <mxGeometry width="50" height="100" relative="1" as="geometry">
            <mxPoint x="422" y="1338" as="sourcePoint" />
            <mxPoint x="972" y="1358" as="targetPoint" />
            <Array as="points" />
          </mxGeometry>
        </mxCell>
        <mxCell id="hzy0wfzQoTHKPnieWF61-6" value="" style="verticalLabelPosition=bottom;html=1;verticalAlign=top;strokeWidth=1;align=center;outlineConnect=0;dashed=0;outlineConnect=0;shape=mxgraph.aws3d.securityTokenService;fillColor=#ECECEC;strokeColor=#5E5E5E;aspect=fixed;" vertex="1" parent="1">
          <mxGeometry x="1557.01" y="1460" width="109.8" height="117.12" as="geometry" />
        </mxCell>
        <mxCell id="d5ac148becb70bc-16" value="" style="verticalLabelPosition=bottom;html=1;verticalAlign=top;strokeWidth=1;dashed=0;shape=mxgraph.aws3d.secureConnection;fillColor=#000000;strokeColor=#ffffff;aspect=fixed;rounded=1;shadow=0;comic=0;fontSize=12" parent="1" vertex="1">
          <mxGeometry x="1323.3" y="1670" width="56.99999999999999" height="34" as="geometry" />
        </mxCell>
        <mxCell id="hzy0wfzQoTHKPnieWF61-7" value="" style="edgeStyle=isometricEdgeStyle;endArrow=none;html=1;labelBackgroundColor=none;strokeWidth=5;fontFamily=Verdana;fontSize=12;" edge="1" parent="1">
          <mxGeometry width="50" height="100" relative="1" as="geometry">
            <mxPoint x="462" y="1368" as="sourcePoint" />
            <mxPoint x="1320" y="1710" as="targetPoint" />
            <Array as="points">
              <mxPoint x="860" y="1570" />
            </Array>
          </mxGeometry>
        </mxCell>
        <mxCell id="hzy0wfzQoTHKPnieWF61-8" value="" style="verticalLabelPosition=bottom;html=1;verticalAlign=top;strokeWidth=1;align=center;outlineConnect=0;dashed=0;outlineConnect=0;shape=mxgraph.aws3d.elasticLoadBalancing;fillColor=#ECECEC;strokeColor=#5E5E5E;aspect=fixed;" vertex="1" parent="1">
          <mxGeometry x="1188.2" y="1110" width="123.3" height="118.17" as="geometry" />
        </mxCell>
        <mxCell id="hzy0wfzQoTHKPnieWF61-9" value="" style="verticalLabelPosition=bottom;html=1;verticalAlign=top;strokeWidth=1;align=center;outlineConnect=0;dashed=0;outlineConnect=0;shape=mxgraph.aws3d.elasticLoadBalancing;fillColor=#ECECEC;strokeColor=#5E5E5E;aspect=fixed;" vertex="1" parent="1">
          <mxGeometry x="710" y="842.66" width="112" height="107.34" as="geometry" />
        </mxCell>
        <mxCell id="hzy0wfzQoTHKPnieWF61-10" value="" style="verticalLabelPosition=bottom;html=1;verticalAlign=top;strokeWidth=1;align=center;outlineConnect=0;dashed=0;outlineConnect=0;shape=mxgraph.aws3d.elasticLoadBalancing;fillColor=#ECECEC;strokeColor=#5E5E5E;aspect=fixed;" vertex="1" parent="1">
          <mxGeometry x="1669.6" y="1384.36" width="123.3" height="118.17" as="geometry" />
        </mxCell>
        <mxCell id="hzy0wfzQoTHKPnieWF61-11" value="" style="verticalLabelPosition=bottom;html=1;verticalAlign=top;strokeWidth=1;dashed=0;shape=mxgraph.aws3d.dashedEdgeDouble;fillColor=#000000;aspect=fixed;rounded=1;shadow=0;comic=0;fontFamily=Verdana;fontSize=12;flipV=1;" vertex="1" parent="1">
          <mxGeometry x="1529.8" y="1566" width="52.2" height="30" as="geometry" />
        </mxCell>
        <mxCell id="hzy0wfzQoTHKPnieWF61-12" value="" style="verticalLabelPosition=bottom;html=1;verticalAlign=top;strokeWidth=1;dashed=0;shape=mxgraph.aws3d.dashedEdgeDouble;fillColor=#000000;aspect=fixed;rounded=1;shadow=0;comic=0;fontFamily=Verdana;fontSize=12;flipV=1;" vertex="1" parent="1">
          <mxGeometry x="830" y="820" width="84" height="48.28" as="geometry" />
        </mxCell>
        <mxCell id="hzy0wfzQoTHKPnieWF61-13" value="" style="verticalLabelPosition=bottom;html=1;verticalAlign=top;strokeWidth=1;dashed=0;shape=mxgraph.aws3d.dashedEdgeDouble;fillColor=#000000;aspect=fixed;rounded=1;shadow=0;comic=0;fontFamily=Verdana;fontSize=12;flipV=1;" vertex="1" parent="1">
          <mxGeometry x="1293.6" y="1083.85" width="62.9" height="36.15" as="geometry" />
        </mxCell>
        <mxCell id="hzy0wfzQoTHKPnieWF61-14" value="" style="verticalLabelPosition=bottom;html=1;verticalAlign=top;strokeWidth=1;dashed=0;shape=mxgraph.aws3d.dashedEdgeDouble;fillColor=#000000;aspect=fixed;rounded=1;shadow=0;comic=0;fontFamily=Verdana;fontSize=12;flipV=1;" vertex="1" parent="1">
          <mxGeometry x="1080" y="1224" width="104.4" height="60" as="geometry" />
        </mxCell>
        <mxCell id="hzy0wfzQoTHKPnieWF61-15" value="" style="verticalLabelPosition=bottom;html=1;verticalAlign=top;strokeWidth=1;dashed=0;shape=mxgraph.aws3d.dashedEdgeDouble;fillColor=#000000;aspect=fixed;rounded=1;shadow=0;comic=0;fontFamily=Verdana;fontSize=12;flipV=1;" vertex="1" parent="1">
          <mxGeometry x="1810.39" y="1390" width="59.79" height="34.36" as="geometry" />
        </mxCell>
        <mxCell id="hzy0wfzQoTHKPnieWF61-18" value="" style="verticalLabelPosition=bottom;html=1;verticalAlign=top;strokeWidth=1;align=center;outlineConnect=0;dashed=0;outlineConnect=0;shape=mxgraph.aws3d.application2;strokeColor=#B0F373;aspect=fixed;fillColor=#99FF99;" vertex="1" parent="1">
          <mxGeometry x="840" y="720" width="104.11" height="89" as="geometry" />
        </mxCell>
        <mxCell id="hzy0wfzQoTHKPnieWF61-19" value="" style="verticalLabelPosition=bottom;html=1;verticalAlign=top;strokeWidth=1;align=center;outlineConnect=0;dashed=0;outlineConnect=0;shape=mxgraph.aws3d.application_server;fillColor=#ECECEC;strokeColor=#5E5E5E;aspect=fixed;" vertex="1" parent="1">
          <mxGeometry x="1430.43" y="1050" width="101.69" height="102.51" as="geometry" />
        </mxCell>
        <mxCell id="hzy0wfzQoTHKPnieWF61-27" value="" style="verticalLabelPosition=bottom;html=1;verticalAlign=top;strokeWidth=1;align=center;outlineConnect=0;dashed=0;outlineConnect=0;shape=mxgraph.aws3d.s3;fillColor=#ECECEC;strokeColor=#5E5E5E;aspect=fixed;" vertex="1" parent="1">
          <mxGeometry x="1096.82" y="500.66" width="231.5" height="239" as="geometry" />
        </mxCell>
        <mxCell id="hzy0wfzQoTHKPnieWF61-30" value="&lt;font style=&quot;font-size: 26px;&quot;&gt;API Gateway&lt;/font&gt;" style="text;html=1;align=center;verticalAlign=middle;resizable=0;points=[];autosize=1;strokeColor=none;fontSize=26;rotation=-30;" vertex="1" parent="1">
          <mxGeometry x="615" y="1012.34" width="170" height="40" as="geometry" />
        </mxCell>
        <mxCell id="hzy0wfzQoTHKPnieWF61-31" value="&lt;font style=&quot;font-size: 26px&quot;&gt;Load Balancer&lt;/font&gt;" style="text;html=1;align=center;verticalAlign=middle;resizable=0;points=[];autosize=1;strokeColor=none;fontSize=26;" vertex="1" parent="1">
          <mxGeometry x="785" y="937.3399999999999" width="180" height="40" as="geometry" />
        </mxCell>
        <mxCell id="hzy0wfzQoTHKPnieWF61-32" value="" style="verticalLabelPosition=bottom;html=1;verticalAlign=top;strokeWidth=1;align=center;outlineConnect=0;dashed=0;outlineConnect=0;shape=mxgraph.aws3d.application2;strokeColor=#B0F373;aspect=fixed;fillColor=#99FFCC;" vertex="1" parent="1">
          <mxGeometry x="931.8499999999999" y="767.56" width="108.17" height="92.47" as="geometry" />
        </mxCell>
        <mxCell id="hzy0wfzQoTHKPnieWF61-34" value="" style="verticalLabelPosition=bottom;html=1;verticalAlign=top;strokeWidth=1;dashed=0;shape=mxgraph.aws3d.dashedEdgeDouble;fillColor=#000000;aspect=fixed;rounded=1;shadow=0;comic=0;fontFamily=Verdana;fontSize=12;flipV=1;" vertex="1" parent="1">
          <mxGeometry x="1060" y="730" width="77.4" height="44.47" as="geometry" />
        </mxCell>
        <mxCell id="hzy0wfzQoTHKPnieWF61-36" value="" style="verticalLabelPosition=bottom;html=1;verticalAlign=top;strokeWidth=1;dashed=0;shape=mxgraph.aws3d.dashedEdgeDouble;fillColor=#000000;aspect=fixed;rounded=1;shadow=0;comic=0;fontFamily=Verdana;fontSize=12;flipV=1;rotation=15;" vertex="1" parent="1">
          <mxGeometry x="998.07" y="685.07" width="94.99" height="54.59" as="geometry" />
        </mxCell>
        <mxCell id="hzy0wfzQoTHKPnieWF61-37" value="" style="verticalLabelPosition=bottom;html=1;verticalAlign=top;strokeWidth=1;dashed=0;shape=mxgraph.aws3d.dashedEdgeDouble;fillColor=#000000;aspect=fixed;rounded=1;shadow=0;comic=0;fontFamily=Verdana;fontSize=12;flipV=1;rotation=-15;" vertex="1" parent="1">
          <mxGeometry x="1557.01" y="1010.97" width="42.09" height="24.19" as="geometry" />
        </mxCell>
        <mxCell id="hzy0wfzQoTHKPnieWF61-38" value="" style="verticalLabelPosition=bottom;html=1;verticalAlign=top;strokeWidth=1;dashed=0;shape=mxgraph.aws3d.dashedEdgeDouble;fillColor=#000000;aspect=fixed;rounded=1;shadow=0;comic=0;fontFamily=Verdana;fontSize=12;flipV=1;rotation=-5;" vertex="1" parent="1">
          <mxGeometry x="2020" y="1268.05" width="41.58" height="23.89" as="geometry" />
        </mxCell>
        <mxCell id="hzy0wfzQoTHKPnieWF61-39" value="" style="verticalLabelPosition=bottom;html=1;verticalAlign=top;strokeWidth=1;dashed=0;shape=mxgraph.aws3d.dashedArrowlessEdge;aspect=fixed;rounded=1;shadow=0;comic=0;fontFamily=Verdana;fontSize=12;flipV=1;" vertex="1" parent="1">
          <mxGeometry x="1010" y="480" width="265.66" height="151.5" as="geometry" />
        </mxCell>
        <mxCell id="hzy0wfzQoTHKPnieWF61-40" value="&lt;font style=&quot;font-size: 26px&quot;&gt;Subscription&lt;/font&gt;" style="text;html=1;align=center;verticalAlign=middle;resizable=0;points=[];autosize=1;strokeColor=none;fontSize=26;rotation=30;" vertex="1" parent="1">
          <mxGeometry x="241" y="1223.17" width="160" height="40" as="geometry" />
        </mxCell>
        <mxCell id="hzy0wfzQoTHKPnieWF61-41" value="&lt;font style=&quot;font-size: 26px&quot;&gt;Login Auth&lt;/font&gt;" style="text;html=1;align=center;verticalAlign=middle;resizable=0;points=[];autosize=1;strokeColor=none;fontSize=26;rotation=30;" vertex="1" parent="1">
          <mxGeometry x="590" y="1339" width="140" height="40" as="geometry" />
        </mxCell>
        <mxCell id="hzy0wfzQoTHKPnieWF61-42" value="Video/Article Recommendation" style="text;html=1;align=center;verticalAlign=middle;resizable=0;points=[];autosize=1;strokeColor=none;fontSize=26;rotation=30;" vertex="1" parent="1">
          <mxGeometry x="850" y="1620" width="370" height="40" as="geometry" />
        </mxCell>
        <mxCell id="hzy0wfzQoTHKPnieWF61-43" value="&lt;font style=&quot;font-size: 28px&quot;&gt;AWS ECS&lt;/font&gt;" style="text;html=1;align=center;verticalAlign=middle;resizable=0;points=[];autosize=1;strokeColor=none;fontSize=26;rotation=30;" vertex="1" parent="1">
          <mxGeometry x="925.0000000000001" y="734.93" width="140" height="40" as="geometry" />
        </mxCell>
        <mxCell id="hzy0wfzQoTHKPnieWF61-44" value="" style="verticalLabelPosition=bottom;html=1;verticalAlign=top;strokeWidth=1;align=center;outlineConnect=0;dashed=0;outlineConnect=0;shape=mxgraph.aws3d.application_server;fillColor=#ECECEC;strokeColor=#5E5E5E;aspect=fixed;" vertex="1" parent="1">
          <mxGeometry x="1328.32" y="980" width="106.48" height="107.34" as="geometry" />
        </mxCell>
        <mxCell id="hzy0wfzQoTHKPnieWF61-45" value="" style="verticalLabelPosition=bottom;html=1;verticalAlign=top;strokeWidth=1;dashed=0;shape=mxgraph.aws3d.dashedEdgeDouble;fillColor=#000000;aspect=fixed;rounded=1;shadow=0;comic=0;fontFamily=Verdana;fontSize=12;flipV=1;rotation=15;" vertex="1" parent="1">
          <mxGeometry x="1460" y="962" width="57.72" height="33.17" as="geometry" />
        </mxCell>
        <mxCell id="hzy0wfzQoTHKPnieWF61-46" value="&lt;font style=&quot;font-size: 28px&quot;&gt;EC2 Instances&lt;/font&gt;" style="text;html=1;align=center;verticalAlign=middle;resizable=0;points=[];autosize=1;strokeColor=none;fontSize=26;rotation=30;" vertex="1" parent="1">
          <mxGeometry x="1388.8600000000004" y="1003.06" width="200" height="40" as="geometry" />
        </mxCell>
        <mxCell id="hzy0wfzQoTHKPnieWF61-47" value="&lt;font style=&quot;font-size: 28px&quot;&gt;Lambda (serverless)&lt;/font&gt;" style="text;html=1;align=center;verticalAlign=middle;resizable=0;points=[];autosize=1;strokeColor=none;fontSize=26;rotation=30;" vertex="1" parent="1">
          <mxGeometry x="1810.39" y="1251" width="270" height="40" as="geometry" />
        </mxCell>
        <mxCell id="hzy0wfzQoTHKPnieWF61-48" value="&lt;span style=&quot;font-size: 28px&quot;&gt;S3&lt;/span&gt;" style="text;html=1;align=center;verticalAlign=middle;resizable=0;points=[];autosize=1;strokeColor=none;fontSize=26;rotation=0;" vertex="1" parent="1">
          <mxGeometry x="1280.6300000000003" y="500.65999999999997" width="50" height="40" as="geometry" />
        </mxCell>
        <mxCell id="hzy0wfzQoTHKPnieWF61-51" value="" style="verticalLabelPosition=bottom;html=1;verticalAlign=top;strokeWidth=1;dashed=0;shape=mxgraph.aws3d.dashedArrowlessEdge;aspect=fixed;rounded=1;shadow=0;comic=0;fontFamily=Verdana;fontSize=12" vertex="1" parent="1">
          <mxGeometry x="1010" y="640" width="1154.59" height="657.93" as="geometry" />
        </mxCell>
        <mxCell id="hzy0wfzQoTHKPnieWF61-52" value="" style="verticalLabelPosition=bottom;html=1;verticalAlign=top;strokeWidth=1;align=center;outlineConnect=0;dashed=0;outlineConnect=0;shape=mxgraph.aws3d.cloudfront;strokeColor=#5E5E5E;aspect=fixed;fontSize=26;fillColor=#E6E6E6;" vertex="1" parent="1">
          <mxGeometry x="425" y="940.2" width="103.8" height="169.79999999999998" as="geometry" />
        </mxCell>
        <mxCell id="hzy0wfzQoTHKPnieWF61-53" value="" style="verticalLabelPosition=bottom;html=1;verticalAlign=top;strokeWidth=1;align=center;outlineConnect=0;dashed=0;outlineConnect=0;shape=mxgraph.aws3d.cloudfront;strokeColor=#5E5E5E;aspect=fixed;fontSize=26;fillColor=#E6E6E6;" vertex="1" parent="1">
          <mxGeometry x="950" y="1166.2" width="116.03" height="189.8" as="geometry" />
        </mxCell>
        <mxCell id="hzy0wfzQoTHKPnieWF61-54" value="" style="verticalLabelPosition=bottom;html=1;verticalAlign=top;strokeWidth=1;align=center;outlineConnect=0;dashed=0;outlineConnect=0;shape=mxgraph.aws3d.cloudfront;strokeColor=#5E5E5E;aspect=fixed;fontSize=26;fillColor=#E6E6E6;" vertex="1" parent="1">
          <mxGeometry x="1420" y="1460" width="116.03" height="189.8" as="geometry" />
        </mxCell>
        <mxCell id="hzy0wfzQoTHKPnieWF61-55" value="" style="verticalLabelPosition=bottom;html=1;verticalAlign=top;strokeWidth=1;align=center;outlineConnect=0;dashed=0;outlineConnect=0;shape=mxgraph.aws3d.securityTokenService;fillColor=#ECECEC;strokeColor=#5E5E5E;aspect=fixed;" vertex="1" parent="1">
          <mxGeometry x="974.06" y="1274" width="75.94" height="81" as="geometry" />
        </mxCell>
        <mxCell id="hzy0wfzQoTHKPnieWF61-56" value="&lt;font style=&quot;font-size: 26px&quot;&gt;CDN&lt;/font&gt;" style="text;html=1;align=center;verticalAlign=middle;resizable=0;points=[];autosize=1;strokeColor=none;fontSize=26;rotation=-30;" vertex="1" parent="1">
          <mxGeometry x="480" y="1106.15" width="70" height="40" as="geometry" />
        </mxCell>
        <mxCell id="hzy0wfzQoTHKPnieWF61-58" value="" style="verticalLabelPosition=bottom;html=1;verticalAlign=top;strokeWidth=1;dashed=0;shape=mxgraph.aws3d.dashedArrowlessEdge;aspect=fixed;rounded=1;shadow=0;comic=0;fontFamily=Verdana;fontSize=12;flipV=1;" vertex="1" parent="1">
          <mxGeometry x="610" y="680" width="353.34" height="201.5" as="geometry" />
        </mxCell>
        <mxCell id="hzy0wfzQoTHKPnieWF61-59" value="" style="verticalLabelPosition=bottom;html=1;verticalAlign=top;strokeWidth=1;dashed=0;shape=mxgraph.aws3d.dashedArrowlessEdge;aspect=fixed;rounded=1;shadow=0;comic=0;fontFamily=Verdana;fontSize=12" vertex="1" parent="1">
          <mxGeometry x="1280.63" y="480" width="1154.59" height="657.93" as="geometry" />
        </mxCell>
        <mxCell id="hzy0wfzQoTHKPnieWF61-60" value="" style="verticalLabelPosition=bottom;html=1;verticalAlign=top;strokeWidth=1;dashed=0;shape=mxgraph.aws3d.dashedArrowlessEdge;aspect=fixed;rounded=1;shadow=0;comic=0;fontFamily=Verdana;fontSize=12;flipV=1;" vertex="1" parent="1">
          <mxGeometry x="2170" y="1150" width="265.22" height="151.25" as="geometry" />
        </mxCell>
        <mxCell id="hzy0wfzQoTHKPnieWF61-61" value="" style="verticalLabelPosition=bottom;html=1;verticalAlign=top;strokeWidth=1;align=center;outlineConnect=0;dashed=0;outlineConnect=0;shape=mxgraph.aws3d.dynamoDb;fillColor=#ECECEC;strokeColor=#5E5E5E;aspect=fixed;fontSize=26;" vertex="1" parent="1">
          <mxGeometry x="1557.01" y="760" width="194.4" height="224.93" as="geometry" />
        </mxCell>
        <mxCell id="hzy0wfzQoTHKPnieWF61-62" value="&lt;span style=&quot;font-size: 28px&quot;&gt;DynamoDB&lt;/span&gt;" style="text;html=1;align=center;verticalAlign=middle;resizable=0;points=[];autosize=1;strokeColor=none;fontSize=26;rotation=30;" vertex="1" parent="1">
          <mxGeometry x="1666.8100000000002" y="744.4899999999999" width="160" height="40" as="geometry" />
        </mxCell>
        <mxCell id="hzy0wfzQoTHKPnieWF61-63" value="" style="verticalLabelPosition=bottom;html=1;verticalAlign=top;strokeWidth=1;dashed=0;shape=mxgraph.aws3d.dashedEdgeDouble;fillColor=#000000;aspect=fixed;rounded=1;shadow=0;comic=0;fontFamily=Verdana;fontSize=12;flipV=1;rotation=15;" vertex="1" parent="1">
          <mxGeometry x="1338.32" y="1120" width="62.9" height="36.15" as="geometry" />
        </mxCell>
        <mxCell id="hzy0wfzQoTHKPnieWF61-64" value="" style="verticalLabelPosition=bottom;html=1;verticalAlign=top;strokeWidth=1;align=center;outlineConnect=0;dashed=0;outlineConnect=0;shape=mxgraph.aws3d.lambda;fillColor=#ECECEC;strokeColor=#5E5E5E;aspect=fixed;fontSize=26;" vertex="1" parent="1">
          <mxGeometry x="1879.99" y="1291" width="92" height="109.5" as="geometry" />
        </mxCell>
        <mxCell id="hzy0wfzQoTHKPnieWF61-66" value="" style="verticalLabelPosition=bottom;html=1;verticalAlign=top;strokeWidth=1;align=center;outlineConnect=0;dashed=0;outlineConnect=0;shape=mxgraph.aws3d.simpleDb2;fillColor=#ECECEC;strokeColor=#5E5E5E;aspect=fixed;fontSize=26;" vertex="1" parent="1">
          <mxGeometry x="2061.58" y="1081.4" width="181.5" height="192.6" as="geometry" />
        </mxCell>
        <mxCell id="hzy0wfzQoTHKPnieWF61-67" value="&lt;span style=&quot;font-size: 28px&quot;&gt;AWS Elastic Cache&lt;/span&gt;" style="text;html=1;align=center;verticalAlign=middle;resizable=0;points=[];autosize=1;strokeColor=none;fontSize=26;rotation=30;" vertex="1" parent="1">
          <mxGeometry x="2100.0000000000005" y="1059.9999999999998" width="260" height="40" as="geometry" />
        </mxCell>
      </root>
    </mxGraphModel>
  </diagram>
</mxfile>
